<?xml version="1.0" encoding="utf-8"?>
<svg xmlns="http://www.w3.org/2000/svg" viewBox="0 0 50 50" width="500" height="500">
  <path d="M12.125 -0.03125C11.527344 0.0273438 10.992188 0.347656 10.65625 0.84375C9.65625 2.253906 7.796875 4.964844 6.15625 7.9375C4.515625 10.910156 3 14.011719 3 17C3 20.65625 5.40625 23.511719 7.40625 26.1875C9.40625 28.863281 11 31.355469 11 33C11 34.335938 9.851563 37.34375 8.34375 40.09375C6.835938 42.84375 5.054688 45.480469 4.09375 46.84375C3.457031 47.75 3.671875 49.003906 4.578125 49.640625C5.484375 50.277344 6.738281 50.0625 7.375 49.15625C8.394531 47.714844 10.246094 45.003906 11.875 42.03125C13.503906 39.058594 15 35.96875 15 33C15 29.34375 12.59375 26.488281 10.59375 23.8125C8.59375 21.136719 7 18.644531 7 17C7 15.65625 8.136719 12.628906 9.65625 9.875C11.175781 7.121094 12.984375 4.5 13.9375 3.15625C14.386719 2.546875 14.453125 1.734375 14.109375 1.058594C13.765625 0.386719 13.070313 -0.0351563 12.3125 -0.03125C12.25 -0.0351563 12.1875 -0.0351563 12.125 -0.03125 Z M 28.15625 -0.03125C27.558594 0.0273438 27.023438 0.347656 26.6875 0.84375C25.691406 2.246094 23.832031 4.960938 22.1875 7.9375C20.542969 10.914063 19 14.003906 19 17C19 20.65625 21.40625 23.511719 23.40625 26.1875C25.40625 28.863281 27 31.355469 27 33C27 34.332031 25.878906 37.34375 24.375 40.09375C22.871094 42.84375 21.089844 45.476563 20.125 46.84375C19.644531 47.421875 19.527344 48.21875 19.820313 48.910156C20.117188 49.601563 20.773438 50.066406 21.523438 50.121094C22.273438 50.171875 22.988281 49.800781 23.375 49.15625C24.398438 47.707031 26.25 45.003906 27.875 42.03125C29.5 39.058594 31 35.964844 31 33C31 29.34375 28.59375 26.488281 26.59375 23.8125C24.59375 21.136719 23 18.644531 23 17C23 15.652344 24.164063 12.628906 25.6875 9.875C27.210938 7.121094 28.988281 4.492188 29.9375 3.15625C30.382813 2.550781 30.453125 1.746094 30.117188 1.074219C29.78125 0.402344 29.09375 -0.0234375 28.34375 -0.03125C28.28125 -0.0351563 28.21875 -0.0351563 28.15625 -0.03125 Z M 44.15625 -0.03125C43.558594 0.0273438 43.023438 0.347656 42.6875 0.84375C41.699219 2.238281 39.835938 4.960938 38.1875 7.9375C36.539063 10.914063 35 14 35 17C35 20.65625 37.40625 23.511719 39.40625 26.1875C41.40625 28.863281 43 31.355469 43 33C43 34.335938 41.882813 37.34375 40.375 40.09375C38.867188 42.84375 37.058594 45.480469 36.09375 46.84375C35.457031 47.75 35.671875 49.003906 36.578125 49.640625C37.484375 50.277344 38.738281 50.0625 39.375 49.15625C40.394531 47.714844 42.246094 45.003906 43.875 42.03125C45.503906 39.058594 47 35.96875 47 33C47 29.34375 44.59375 26.488281 42.59375 23.8125C40.59375 21.136719 39 18.644531 39 17C39 15.652344 40.160156 12.628906 41.6875 9.875C43.214844 7.121094 44.992188 4.488281 45.9375 3.15625C46.382813 2.550781 46.453125 1.746094 46.117188 1.074219C45.78125 0.402344 45.09375 -0.0234375 44.34375 -0.03125C44.28125 -0.0351563 44.21875 -0.0351563 44.15625 -0.03125Z" />
</svg>