<?xml version="1.0" encoding="utf-8"?>
<svg xmlns="http://www.w3.org/2000/svg" viewBox="0 0 48 48" width="256" height="256">
  <radialGradient id="XKw1ziwfqCQ1V911SUIg3a" cx="16" cy="17" r="13" gradientUnits="userSpaceOnUse">
    <stop offset="0" stop-color="#ffe16e" />
    <stop offset=".583" stop-color="#fcbf22" />
    <stop offset=".654" stop-color="#fea20f" />
    <stop offset=".718" stop-color="#ff8c00" />
    <stop offset=".797" stop-color="#ffa300" />
    <stop offset=".928" stop-color="#ffc400" />
    <stop offset="1" stop-color="#ffd000" />
  </radialGradient>
  <path fill="url(#XKw1ziwfqCQ1V911SUIg3a)" d="M16,4l0.561,1.161c0.637,1.319,2.359,1.661,3.452,0.687l0.962-0.858l0.074,1.287c0.084,1.462,1.544,2.437,2.927,1.955l1.217-0.424l-0.424,1.217c-0.482,1.383,0.493,2.843,1.955,2.927l1.287,0.074l-0.858,0.962c-0.974,1.093-0.632,2.815,0.687,3.452L29,17l-1.161,0.561c-1.319,0.637-1.661,2.359-0.687,3.452l0.858,0.962l-1.287,0.074c-1.462,0.084-2.437,1.544-1.955,2.927l0.424,1.217l-1.217-0.424c-1.383-0.482-2.843,0.493-2.927,1.955l-0.074,1.287l-0.962-0.858c-1.093-0.974-2.815-0.632-3.452,0.687L16,30l-0.561-1.161c-0.637-1.319-2.359-1.661-3.452-0.687l-0.962,0.858l-0.074-1.287c-0.084-1.462-1.544-2.437-2.927-1.955l-1.217,0.424l0.424-1.217c0.482-1.383-0.493-2.843-1.955-2.927L3.99,21.975l0.858-0.962c0.974-1.093,0.632-2.815-0.687-3.452L3,17l1.161-0.561c1.319-0.637,1.661-2.359,0.687-3.452L3.99,12.025l1.287-0.074c1.462-0.084,2.437-1.544,1.955-2.927L6.808,7.808l1.217,0.424c1.383,0.482,2.843-0.493,2.927-1.955l0.074-1.287l0.962,0.858c1.093,0.974,2.815,0.632,3.452-0.687L16,4z" />
  <circle cx="28" cy="22" r="12" fill="#9fd5ed" />
  <circle cx="37" cy="30" r="9" fill="#9fd5ed" />
  <circle cx="30" cy="31" r="9" fill="#9fd5ed" />
  <circle cx="18" cy="31" r="9" fill="#9fd5ed" />
  <circle cx="24" cy="30" r="9" fill="#9fd5ed" />
  <circle cx="11" cy="30" r="9" fill="#9fd5ed" />
  <circle cx="16" cy="24" r="7" fill="#9fd5ed" />
  <radialGradient id="XKw1ziwfqCQ1V911SUIg3b" cx="28" cy="22" r="12" gradientUnits="userSpaceOnUse">
    <stop offset="0" stop-color="#e3f4ff" />
    <stop offset="1" stop-color="#e3f4ff" stop-opacity="0" />
  </radialGradient>
  <circle cx="28" cy="22" r="12" fill="url(#XKw1ziwfqCQ1V911SUIg3b)" />
  <radialGradient id="XKw1ziwfqCQ1V911SUIg3c" cx="37" cy="30" r="9" gradientUnits="userSpaceOnUse">
    <stop offset="0" stop-color="#e3f4ff" />
    <stop offset="1" stop-color="#e3f4ff" stop-opacity="0" />
  </radialGradient>
  <circle cx="37" cy="30" r="9" fill="url(#XKw1ziwfqCQ1V911SUIg3c)" />
  <radialGradient id="XKw1ziwfqCQ1V911SUIg3d" cx="30" cy="31" r="9" gradientUnits="userSpaceOnUse">
    <stop offset="0" stop-color="#e3f4ff" />
    <stop offset="1" stop-color="#e3f4ff" stop-opacity="0" />
  </radialGradient>
  <circle cx="30" cy="31" r="9" fill="url(#XKw1ziwfqCQ1V911SUIg3d)" />
  <radialGradient id="XKw1ziwfqCQ1V911SUIg3e" cx="18" cy="31" r="9" gradientUnits="userSpaceOnUse">
    <stop offset="0" stop-color="#e3f4ff" />
    <stop offset="1" stop-color="#e3f4ff" stop-opacity="0" />
  </radialGradient>
  <circle cx="18" cy="31" r="9" fill="url(#XKw1ziwfqCQ1V911SUIg3e)" />
  <radialGradient id="XKw1ziwfqCQ1V911SUIg3f" cx="24" cy="30" r="9" gradientUnits="userSpaceOnUse">
    <stop offset="0" stop-color="#e3f4ff" />
    <stop offset="1" stop-color="#e3f4ff" stop-opacity="0" />
  </radialGradient>
  <circle cx="24" cy="30" r="9" fill="url(#XKw1ziwfqCQ1V911SUIg3f)" />
  <radialGradient id="XKw1ziwfqCQ1V911SUIg3g" cx="11" cy="30" r="9" gradientUnits="userSpaceOnUse">
    <stop offset="0" stop-color="#e3f4ff" />
    <stop offset="1" stop-color="#e3f4ff" stop-opacity="0" />
  </radialGradient>
  <circle cx="11" cy="30" r="9" fill="url(#XKw1ziwfqCQ1V911SUIg3g)" />
  <radialGradient id="XKw1ziwfqCQ1V911SUIg3h" cx="16" cy="24" r="7" gradientUnits="userSpaceOnUse">
    <stop offset="0" stop-color="#e3f4ff" />
    <stop offset="1" stop-color="#e3f4ff" stop-opacity="0" />
  </radialGradient>
  <circle cx="16" cy="24" r="7" fill="url(#XKw1ziwfqCQ1V911SUIg3h)" />
</svg>