<?xml version="1.0" encoding="utf-8"?>
<svg xmlns="http://www.w3.org/2000/svg" viewBox="0 0 50 50" width="500" height="500">
  <path d="M15.5 4C12.829713 4 10.48004 5.4063162 9.1542969 7.5136719 A 1.0001 1.0001 0 1 0 10.845703 8.5800781C11.81996 7.0314338 13.530287 6 15.5 6C18.598056 6 21.077993 8.5260383 20.998047 11.646484C20.920731 14.650056 18.260652 17 15.199219 17L4 17 A 1.0001 1.0001 0 1 0 4 19L15.199219 19C19.287785 19 22.891363 15.841694 22.998047 11.697266C23.106101 7.4797117 19.695944 4 15.5 4 z M 38 8C34.617055 8 31.65948 9.8748171 30.125 12.644531 A 1.0005954 1.0005954 0 1 0 31.875 13.615234C33.06852 11.460949 35.354945 10 38 10C42.021546 10 45.23173 13.350607 44.986328 17.433594C44.762543 21.156952 41.467737 24 37.6875 24L4 24 A 1.0001 1.0001 0 1 0 4 26L37.6875 26C42.473263 26 46.692207 22.383329 46.982422 17.554688C47.29502 12.353674 43.142454 8 38 8 z M 4 31 A 1.0001 1.0001 0 1 0 4 33L25.199219 33C28.260652 33 30.920731 35.349944 30.998047 38.353516C31.077993 41.473962 28.598056 44 25.5 44C23.530287 44 21.81996 42.968566 20.845703 41.419922 A 1.0001 1.0001 0 1 0 19.154297 42.486328C20.48004 44.593684 22.829713 46 25.5 46C29.695944 46 33.106101 42.520288 32.998047 38.302734C32.891363 34.158306 29.287785 31 25.199219 31L4 31 z" />
</svg>